#N canvas 0 82 1280 718 10;
#X declare -lib mrpeach;
#X obj 148 -508 import mrpeach;
#X obj 145 -481 udpreceive 7000;
#X obj 145 -419 routeOSC /test1;
#X obj 251 -480 unpack 0 0 0 0;
#X floatatom 251 -455 5 0 0 0 - - -;
#X floatatom 288 -455 5 0 0 0 - - -;
#X floatatom 327 -455 5 0 0 0 - - -;
#X floatatom 366 -455 5 0 0 0 - - -;
#X obj 145 -447 unpackOSC;
#X obj 145 -394 l2s;
#X obj 172 -394 s2l;
#X floatatom 145 -338 5 0 0 0 - - -;
#X obj 145 -370 unpack f f;
#X floatatom 217 -338 5 0 0 0 - - -;
#X obj -122 -404 openpanel;
#X obj -122 -434 bng 15 250 50 0 empty empty empty 17 7 0 10 -262144
-1 -1;
#X msg -122 -380 open \$1;
#X msg -46 -404 start;
#X msg -45 -380 pause;
#X msg -45 -356 stop;
#X text -104 -426 ouvrir son 1;
#X obj -137 -322 mp3play~;
#X obj -138 -286 delwrite~ G09-del 5000;
#X obj 145 -257 line~;
#X obj 145 -284 pack 0 200;
#X obj 206 -146 output~;
#X obj 145 -313 max 1.5;
#X obj 145 -228 vd~ G09-del;
#X msg -137 -464 open tooo.mp3;
#X obj 244 -199 *~;
#X connect 1 0 8 0;
#X connect 1 1 3 0;
#X connect 2 0 9 0;
#X connect 3 0 4 0;
#X connect 3 1 5 0;
#X connect 3 2 6 0;
#X connect 3 3 7 0;
#X connect 8 0 2 0;
#X connect 9 0 10 0;
#X connect 10 0 12 0;
#X connect 11 0 26 0;
#X connect 12 0 11 0;
#X connect 12 1 13 0;
#X connect 13 0 29 0;
#X connect 14 0 16 0;
#X connect 15 0 14 0;
#X connect 16 0 21 0;
#X connect 17 0 21 0;
#X connect 18 0 21 0;
#X connect 19 0 21 0;
#X connect 21 0 22 0;
#X connect 21 1 22 0;
#X connect 23 0 27 0;
#X connect 24 0 23 0;
#X connect 26 0 24 0;
#X connect 27 0 29 1;
#X connect 28 0 21 0;
#X connect 29 0 25 0;
#X connect 29 0 25 1;
