#N canvas 452 36 610 613 10;
#X declare -lib mrpeach;
#X obj 323 6 import mrpeach;
#X obj 323 31 udpreceive 7000;
#X obj 323 93 routeOSC /test1;
#X obj 429 32 unpack 0 0 0 0;
#X floatatom 429 57 5 0 0 0 - - -;
#X floatatom 466 57 5 0 0 0 - - -;
#X floatatom 505 57 5 0 0 0 - - -;
#X floatatom 544 57 5 0 0 0 - - -;
#X obj 323 65 unpackOSC;
#X obj 323 118 l2s;
#X obj 350 118 s2l;
#X floatatom 323 172 5 0 0 0 - - -;
#X obj 323 142 unpack f f;
#X floatatom 365 172 5 0 0 0 - - -;
#X obj 56 108 openpanel;
#X obj 56 78 bng 15 250 50 0 empty empty empty 17 7 0 10 -262144 -1
-1;
#X msg 56 132 open \$1;
#X msg 132 108 start;
#X msg 133 132 pause;
#X msg 133 156 stop;
#X text 137 184 comment;
#X text 74 86 ouvrir son 1;
#X obj 143 48 r openAll;
#X obj 153 87 r startAll;
#X obj 132 181 r stopAll;
#X obj 41 190 mp3play~;
#X obj 165 445 dac~ 1;
#X obj 113 331 *~;
#X obj 162 294 osc~;
#X obj 218 345 *~;
#X obj 174 390 +~;
#X msg 41 48 open John.mp3;
#X connect 1 0 8 0;
#X connect 1 1 3 0;
#X connect 2 0 9 0;
#X connect 3 0 4 0;
#X connect 3 1 5 0;
#X connect 3 2 6 0;
#X connect 3 3 7 0;
#X connect 8 0 2 0;
#X connect 9 0 10 0;
#X connect 10 0 12 0;
#X connect 11 0 28 0;
#X connect 12 0 11 0;
#X connect 12 1 13 0;
#X connect 13 0 29 0;
#X connect 14 0 16 0;
#X connect 15 0 14 0;
#X connect 16 0 25 0;
#X connect 17 0 25 0;
#X connect 18 0 25 0;
#X connect 19 0 25 0;
#X connect 22 0 31 0;
#X connect 23 0 17 0;
#X connect 24 0 19 0;
#X connect 25 0 27 0;
#X connect 25 1 27 0;
#X connect 27 0 30 0;
#X connect 28 0 27 1;
#X connect 29 0 30 1;
#X connect 30 0 26 0;
#X connect 31 0 25 0;
